HIERARCHY
ROOT hip
{
  OFFSET 0 0 0
  CHANNELS 6 Xposition Yposition Zposition Zrotation Yrotation Xrotation
  JOINT abdomen
  {
    OFFSET 0 20.6881 -0.73152
    CHANNELS 3 Zrotation Xrotation Yrotation
    JOINT chest
    {
      OFFSET 0 11.7043 -0.48768
      CHANNELS 3 Zrotation Xrotation Yrotation
      JOINT neck
      {
        OFFSET 0 22.1894 -2.19456
        CHANNELS 3 Zrotation Xrotation Yrotation
        JOINT head
        {
          OFFSET -0.24384 7.07133 1.2192
          CHANNELS 3 Zrotation Xrotation Yrotation
          JOINT leftEye
          {
            OFFSET 4.14528 8.04674 8.04672
            CHANNELS 3 Zrotation Xrotation Yrotation
            End Site
            {
              OFFSET 1 0 0
            }
          }
          JOINT rightEye
          {
            OFFSET -3.6576 8.04674 8.04672
            CHANNELS 3 Zrotation Xrotation Yrotation
            End Site
            {
              OFFSET 1 0 0
            }
          }
        }
      }
      JOINT rCollar
      {
        OFFSET -2.68224 19.2634 -4.8768
        CHANNELS 3 Zrotation Xrotation Yrotation
        JOINT rShldr
        {
          OFFSET -8.77824 -1.95073 1.46304
          CHANNELS 3 Zrotation Xrotation Yrotation
          JOINT rForeArm
          {
            OFFSET -28.1742 -1.7115 0.48768
            CHANNELS 3 Zrotation Xrotation Yrotation
            JOINT rHand
            {
              OFFSET -22.5879 0.773209 7.07136
              CHANNELS 3 Zrotation Xrotation Yrotation
              JOINT rThumb1
              {
                OFFSET -1.2192 -0.487915 3.41376
                CHANNELS 3 Zrotation Xrotation Yrotation
                JOINT rThumb2
                {
                  OFFSET -3.37035 -0.52449 3.41376
                  CHANNELS 3 Zrotation Xrotation Yrotation
                  End Site
                  {
                    OFFSET -1.78271 -1.18214 1.43049
                  }
                }
              }
              JOINT rIndex1
              {
                OFFSET -7.75947 0.938293 5.60832
                CHANNELS 3 Zrotation Xrotation Yrotation
                JOINT rIndex2
                {
                  OFFSET -2.54057 -0.884171 1.56538
                  CHANNELS 3 Zrotation Xrotation Yrotation
                  End Site
                  {
                    OFFSET -1.62519 -0.234802 1.16502
                  }
                }
              }
              JOINT rMid1
              {
                OFFSET -8.24714 1.18213 3.41376
                CHANNELS 3 Zrotation Xrotation Yrotation
                JOINT rMid2
                {
                  OFFSET -3.10165 -0.590103 1.0647
                  CHANNELS 3 Zrotation Xrotation Yrotation
                  End Site
                  {
                    OFFSET -2.48547 -0.328903 0.83742
                  }
                }
              }
              JOINT rRing1
              {
                OFFSET -8.82822 0.546677 1.51678
                CHANNELS 3 Zrotation Xrotation Yrotation
                JOINT rRing2
                {
                  OFFSET -2.60934 -0.819778 -0.0198488
                  CHANNELS 3 Zrotation Xrotation Yrotation
                  End Site
                  {
                    OFFSET -2.33842 -0.294052 0.168128
                  }
                }
              }
              JOINT rPinky1
              {
                OFFSET -8.27202 -0.0477905 -0.4584
                CHANNELS 3 Zrotation Xrotation Yrotation
                JOINT rPinky2
                {
                  OFFSET -1.82734 -0.647385 -0.700984
                  CHANNELS 3 Zrotation Xrotation Yrotation
                  End Site
                  {
                    OFFSET -1.69225 -0.51767 -0.607171
                  }
                }
              }
            }
          }
        }
      }
      JOINT lCollar
      {
        OFFSET 2.68224 19.2634 -4.8768
        CHANNELS 3 Zrotation Xrotation Yrotation
        JOINT lShldr
        {
          OFFSET 8.77824 -1.95073 1.46304
          CHANNELS 3 Zrotation Xrotation Yrotation
          JOINT lForeArm
          {
            OFFSET 28.1742 -1.7115 0.48768
            CHANNELS 3 Zrotation Xrotation Yrotation
            JOINT lHand
            {
              OFFSET 22.5879 0.773209 7.07136
              CHANNELS 3 Zrotation Xrotation Yrotation
              JOINT lThumb1
              {
                OFFSET 1.2192 -0.487915 3.41376
                CHANNELS 3 Zrotation Xrotation Yrotation
                JOINT lThumb2
                {
                  OFFSET 3.37035 -0.52449 3.41376
                  CHANNELS 3 Zrotation Xrotation Yrotation
                  End Site
                  {
                    OFFSET 1.78271 -1.18214 1.43049
                  }
                }
              }
              JOINT lIndex1
              {
                OFFSET 7.75947 0.938293 5.60832
                CHANNELS 3 Zrotation Xrotation Yrotation
                JOINT lIndex2
                {
                  OFFSET 2.54057 -0.884171 1.56538
                  CHANNELS 3 Zrotation Xrotation Yrotation
                  End Site
                  {
                    OFFSET 1.62519 -0.234802 1.16502
                  }
                }
              }
              JOINT lMid1
              {
                OFFSET 8.24714 1.18213 3.41376
                CHANNELS 3 Zrotation Xrotation Yrotation
                JOINT lMid2
                {
                  OFFSET 3.10165 -0.590103 1.0647
                  CHANNELS 3 Zrotation Xrotation Yrotation
                  End Site
                  {
                    OFFSET 2.48547 -0.328903 0.83742
                  }
                }
              }
              JOINT lRing1
              {
                OFFSET 8.82822 0.546677 1.51678
                CHANNELS 3 Zrotation Xrotation Yrotation
                JOINT lRing2
                {
                  OFFSET 2.60934 -0.819778 -0.0198488
                  CHANNELS 3 Zrotation Xrotation Yrotation
                  End Site
                  {
                    OFFSET 2.33842 -0.294052 0.168128
                  }
                }
              }
              JOINT lPinky1
              {
                OFFSET 8.27202 -0.0477905 -0.4584
                CHANNELS 3 Zrotation Xrotation Yrotation
                JOINT lPinky2
                {
                  OFFSET 1.82734 -0.647385 -0.700984
                  CHANNELS 3 Zrotation Xrotation Yrotation
                  End Site
                  {
                    OFFSET 1.69225 -0.51767 -0.607171
                  }
                }
              }
            }
          }
        }
      }
    }
  }
  JOINT rButtock
  {
    OFFSET -8.77824 4.35084 1.2192
    CHANNELS 3 Zrotation Xrotation Yrotation
    JOINT rThigh
    {
      OFFSET 0 -1.70687 -2.19456
      CHANNELS 3 Zrotation Xrotation Yrotation
      JOINT rShin
      {
        OFFSET 0 -36.8199 0.73152
        CHANNELS 3 Zrotation Xrotation Yrotation
        JOINT rFoot
        {
          OFFSET 0.73152 -45.1104 -5.12064
          CHANNELS 3 Zrotation Xrotation Yrotation
          End Site
          {
            OFFSET -1.1221 -3.69964 12.103
          }
        }
      }
    }
  }
  JOINT lButtock
  {
    OFFSET 8.77824 4.35084 1.2192
    CHANNELS 3 Zrotation Xrotation Yrotation
    JOINT lThigh
    {
      OFFSET 0 -1.70687 -2.19456
      CHANNELS 3 Zrotation Xrotation Yrotation
      JOINT lShin
      {
        OFFSET 0 -36.8199 0.73152
        CHANNELS 3 Zrotation Xrotation Yrotation
        JOINT lFoot
        {
          OFFSET -0.73152 -45.1104 -5.12064
          CHANNELS 3 Zrotation Xrotation Yrotation
          End Site
          {
            OFFSET 1.1221 -3.69964 12.103
          }
        }
      }
    }
  }
}
MOTION
Frames:	7
Frame Time:	0.00833333
33.3166 75.4916 -8.60619 96.9793 -84.0836 -91.1565 -4.37416 37.8405 4.73309 -0.833986 -9.15062 0.334135 4.57962 -11.5746 9.22641 -16.8758 9.31408 17.1653 -0.0 0.0 0.0 -0.0 0.0 0.0 -1.57952e-13 -2.89609e-12 -5.57094e-14 73.5856 23.627 14.2645 -27.1556 -26.8721 62.27 -0.234331 -13.6562 -1.95682 -2.97826e-10 -2.16034e-09 6.18854e-09 -5.83106e-10 -3.73067e-09 1.0693e-08 -2.97818e-10 -2.16033e-09 6.18853e-09 7.73091 5.47488 0.417314 -2.97824e-10 -2.16034e-09 6.18854e-09 2.90554 0.965183 0.102902 -2.97819e-10 -2.16034e-09 6.18855e-09 10.2786 0.731801 0.0259123 -2.97831e-10 -2.16034e-09 6.18856e-09 2.22167 -0.733487 -0.20892 -1.57928e-13 -2.89609e-12 -5.56597e-14 -59.1918 38.9487 -27.145 26.3095 -24.2561 -58.0894 0.139575 -10.5908 1.5058 2.28312e-09 -5.82773e-11 -5.02171e-09 3.98691e-09 -9.77162e-11 -8.66174e-09 2.28311e-09 -5.82809e-11 -5.02171e-09 -7.73091 5.47488 -0.417314 2.28311e-09 -5.82827e-11 -5.02172e-09 -2.90554 0.965183 -0.102902 2.2831e-09 -5.82828e-11 -5.02172e-09 -10.2786 0.731801 -0.0259123 2.28312e-09 -5.82849e-11 -5.02172e-09 -2.22167 -0.733487 0.20892 -2.03217e-16 0.0 -3.88251e-19 -25.6106 -32.0858 -14.8578 -0.542303 52.1251 1.64435 -2.62102 -17.2402 -8.6191 2.03217e-16 0.0 3.88251e-19 15.7342 -39.9336 16.3463 0.630375 51.8435 -1.26072 0.369809 -10.0827 2.33952
33.4624 75.4713 -8.74493 93.7276 -83.7781 -87.6888 -4.57283 37.8569 4.90875 -0.809955 -9.1518 0.364973 4.71345 -11.4831 9.35506 -17.2014 9.6723 17.4278 -0.0 0.0 0.0 -0.0 0.0 0.0 -1.37685e-13 -2.54305e-12 -3.6496e-14 73.6378 23.5901 14.2372 -27.159 -26.8841 62.289 -0.23446 -13.6597 -1.95735 -3.26855e-10 -2.07889e-09 5.79221e-09 -6.28846e-10 -3.59076e-09 1.00078e-08 -3.26848e-10 -2.07889e-09 5.79219e-09 7.73091 5.47488 0.417314 -3.26853e-10 -2.07889e-09 5.7922e-09 2.90554 0.965183 0.102902 -3.26848e-10 -2.07889e-09 5.79221e-09 10.2786 0.731801 0.0259123 -3.2686e-10 -2.07889e-09 5.79222e-09 2.22167 -0.733487 -0.20892 -1.37699e-13 -2.54305e-12 -3.64716e-14 -59.2222 38.8189 -27.1438 26.3075 -24.2507 -58.0809 0.142143 -10.6885 1.52001 2.16017e-09 -1.14756e-10 -4.72718e-09 3.77247e-09 -1.95728e-10 -8.15353e-09 2.16017e-09 -1.14758e-10 -4.72718e-09 -7.73091 5.47488 -0.417314 2.16017e-09 -1.14759e-10 -4.72718e-09 -2.90554 0.965183 -0.102902 2.16016e-09 -1.14759e-10 -4.72718e-09 -10.2786 0.731801 -0.0259123 2.16017e-09 -1.14762e-10 -4.72719e-09 -2.22167 -0.733487 0.20892 -2.03217e-16 0.0 -3.88251e-19 -25.5394 -32.2568 -14.8375 -0.551226 52.3914 1.65941 -2.71207 -17.3304 -8.82364 2.03217e-16 0.0 3.88251e-19 15.8533 -39.9323 16.4467 0.625404 51.6968 -1.25231 0.311068 -9.88594 2.1507
33.5615 75.441 -8.9074 91.1139 -83.5605 -84.975 -4.87629 37.8346 5.13634 -0.778546 -9.14268 0.401497 4.83759 -11.3912 9.45189 -17.5343 10.0083 17.6313 -0.0 0.0 0.0 -0.0 0.0 0.0 -7.62375e-14 -1.38533e-12 4.51304e-15 73.7036 23.5325 14.2067 -27.1626 -26.8967 62.3091 -0.233892 -13.6435 -1.95494 -4.37491e-10 -1.77496e-09 4.70755e-09 -8.07705e-10 -3.06721e-09 8.13206e-09 -4.37486e-10 -1.77495e-09 4.70754e-09 7.73091 5.47488 0.417314 -4.3749e-10 -1.77496e-09 4.70754e-09 2.90554 0.965183 0.102902 -4.37484e-10 -1.77496e-09 4.70755e-09 10.2786 0.731801 0.0259123 -4.37495e-10 -1.77495e-09 4.70756e-09 2.22167 -0.733487 -0.20892 -7.63223e-14 -1.38533e-12 4.47886e-15 -59.2283 38.6668 -27.1846 26.3118 -24.2625 -58.1 0.146454 -10.8482 1.54327 1.74805e-09 -2.47095e-10 -3.8768e-09 3.05437e-09 -4.2535e-10 -6.68722e-09 1.74805e-09 -2.47093e-10 -3.87681e-09 -7.73091 5.47488 -0.417314 1.74805e-09 -2.47094e-10 -3.8768e-09 -2.90554 0.965183 -0.102902 1.74804e-09 -2.47095e-10 -3.87681e-09 -10.2786 0.731801 -0.0259123 1.74806e-09 -2.47097e-10 -3.87681e-09 -2.22167 -0.733487 0.20892 -2.03217e-16 0.0 -3.88251e-19 -25.5596 -32.4941 -14.8445 -0.56059 52.6687 1.67552 -2.80506 -17.3873 -9.04456 2.03217e-16 0.0 3.88251e-19 15.9285 -39.9829 16.594 0.619769 51.5268 -1.24243 0.241921 -9.67554 1.92036
33.61 75.4183 -9.06639 90.0279 -83.2203 -83.8838 -5.16912 37.8003 5.33053 -0.75741 -9.12836 0.429572 4.96395 -11.2973 9.54474 -17.8592 10.3299 17.8254 -0.0 0.0 0.0 -0.0 0.0 0.0 -1.32637e-14 -1.65738e-13 4.20729e-14 73.7629 23.4851 14.184 -27.1669 -26.912 62.3335 -0.233316 -13.6272 -1.9525 -5.4345e-10 -1.4434e-09 3.57645e-09 -9.77984e-10 -2.49592e-09 6.17616e-09 -5.43446e-10 -1.4434e-09 3.57644e-09 7.73091 5.47488 0.417314 -5.4345e-10 -1.4434e-09 3.57644e-09 2.90554 0.965183 0.102902 -5.43443e-10 -1.4434e-09 3.57645e-09 10.2786 0.731801 0.0259123 -5.43452e-10 -1.4434e-09 3.57645e-09 2.22167 -0.733487 -0.20892 -1.34209e-14 -1.6574e-13 4.19723e-14 -59.2463 38.5048 -27.2217 26.3204 -24.2862 -58.138 0.151106 -11.0152 1.56763 1.3202e-09 -3.96252e-10 -2.98568e-09 2.30886e-09 -6.84109e-10 -5.15063e-09 1.3202e-09 -3.96248e-10 -2.98568e-09 -7.73091 5.47488 -0.417314 1.3202e-09 -3.96249e-10 -2.98567e-09 -2.90554 0.965183 -0.102902 1.32019e-09 -3.9625e-10 -2.98568e-09 -10.2786 0.731801 -0.0259123 1.3202e-09 -3.96251e-10 -2.98569e-09 -2.22167 -0.733487 0.20892 -2.03217e-16 0.0 -3.88251e-19 -25.6372 -32.7119 -14.9107 -0.56948 52.927 1.69082 -2.88699 -17.4387 -9.23761 2.03217e-16 0.0 3.88251e-19 15.9538 -40.0508 16.7071 0.613909 51.3481 -1.23224 0.175904 -9.46625 1.69465
33.5476 75.4177 -9.5164 91.7228 -83.5033 -85.723 -5.3365 37.781 5.40637 -0.76417 -9.11395 0.435065 5.10425 -11.1998 9.66141 -18.1624 10.6445 18.0604 -0.0 0.0 0.0 -0.0 0.0 0.0 1.158e-14 3.72908e-13 5.09386e-14 73.7957 23.4787 14.1799 -27.1726 -26.9321 62.3655 -0.233417 -13.6301 -1.95294 -5.58444e-10 -1.27909e-09 3.04077e-09 -9.97986e-10 -2.21281e-09 5.25031e-09 -5.58442e-10 -1.27909e-09 3.04077e-09 7.73091 5.47488 0.417314 -5.58445e-10 -1.27909e-09 3.04076e-09 2.90554 0.965183 0.102902 -5.58437e-10 -1.27909e-09 3.04077e-09 10.2786 0.731801 0.0259123 -5.58447e-10 -1.27909e-09 3.04077e-09 2.22167 -0.733487 -0.20892 1.13804e-14 3.72906e-13 5.07895e-14 -59.3112 38.3453 -27.2095 26.3313 -24.3163 -58.1862 0.154527 -11.135 1.58514 1.15006e-09 -5.03189e-10 -2.56889e-09 2.01215e-09 -8.69532e-10 -4.4316e-09 1.15006e-09 -5.03184e-10 -2.56889e-09 -7.73091 5.47488 -0.417314 1.15006e-09 -5.03184e-10 -2.56888e-09 -2.90554 0.965183 -0.102902 1.15005e-09 -5.03186e-10 -2.56889e-09 -10.2786 0.731801 -0.0259123 1.15006e-09 -5.03186e-10 -2.5689e-09 -2.22167 -0.733487 0.20892 -2.03217e-16 0.0 -3.88251e-19 -25.7385 -32.8247 -15.0674 -0.576868 53.1368 1.70332 -2.94506 -17.5128 -9.35858 2.03217e-16 0.0 3.88251e-19 15.9219 -40.1016 16.7047 0.608227 51.1753 -1.22284 0.12565 -9.27292 1.51956
33.4877 75.4737 -9.64051 89.7855 -83.2976 -83.9062 -5.31109 37.7824 5.29112 -0.812915 -9.09971 0.403496 5.26965 -11.0981 9.81561 -18.4422 10.9596 18.3596 -0.0 0.0 0.0 -0.0 0.0 0.0 -2.54556e-14 -1.78943e-13 1.1323e-14 73.7834 23.5423 14.2034 -27.1811 -26.9624 62.4135 -0.234434 -13.6591 -1.95726 -4.56511e-10 -1.40766e-09 3.62352e-09 -8.28819e-10 -2.43443e-09 6.25873e-09 -4.56507e-10 -1.40766e-09 3.62352e-09 7.73091 5.47488 0.417314 -4.56511e-10 -1.40766e-09 3.62351e-09 2.90554 0.965183 0.102902 -4.56503e-10 -1.40766e-09 3.62352e-09 10.2786 0.731801 0.0259123 -4.56515e-10 -1.40766e-09 3.62352e-09 2.22167 -0.733487 -0.20892 -2.56508e-14 -1.78946e-13 1.11498e-14 -59.4501 38.1798 -27.1144 26.3468 -24.3592 -58.2544 0.156074 -11.1888 1.59299 1.43329e-09 -5.89455e-10 -3.04432e-09 2.50579e-09 -1.01869e-09 -5.25078e-09 1.43329e-09 -5.89449e-10 -3.04431e-09 -7.73091 5.47488 -0.417314 1.43329e-09 -5.89451e-10 -3.04431e-09 -2.90554 0.965183 -0.102902 1.43328e-09 -5.89452e-10 -3.04432e-09 -10.2786 0.731801 -0.0259123 1.43329e-09 -5.89452e-10 -3.04433e-09 -2.22167 -0.733487 0.20892 -2.03217e-16 0.0 -3.88251e-19 -25.8898 -32.7771 -15.3706 -0.581841 53.2757 1.71164 -2.96532 -17.6229 -9.36674 2.03217e-16 0.0 3.88251e-19 15.7931 -40.1388 16.5215 0.603117 51.0215 -1.21501 0.0974506 -9.10509 1.42016
33.4182 75.5514 -9.76959 88.3555 -83.2194 -82.5642 -5.16642 37.7904 5.04678 -0.891082 -9.08329 0.345979 5.45101 -10.9931 9.99037 -18.7063 11.2692 18.693 -0.0 0.0 0.0 -0.0 0.0 0.0 -9.88293e-14 -1.35464e-12 -5.89583e-14 73.741 23.6525 14.2469 -27.1916 -27.0 62.4732 -0.235989 -13.7033 -1.96384 -2.84653e-10 -1.70062e-09 4.86509e-09 -5.46423e-10 -2.9393e-09 8.40656e-09 -2.84648e-10 -1.70062e-09 4.86508e-09 7.73091 5.47488 0.417314 -2.84653e-10 -1.70062e-09 4.86508e-09 2.90554 0.965183 0.102902 -2.84644e-10 -1.70062e-09 4.86509e-09 10.2786 0.731801 0.0259123 -2.8466e-10 -1.70062e-09 4.86509e-09 2.22167 -0.733487 -0.20892 -9.89928e-14 -1.35464e-12 -5.91446e-14 -59.6373 38.0053 -26.9683 26.3668 -24.4148 -58.3435 0.156588 -11.207 1.59565 1.98314e-09 -6.74106e-10 -4.04375e-09 3.46428e-09 -1.16478e-09 -6.97336e-09 1.98313e-09 -6.74101e-10 -4.04373e-09 -7.73091 5.47488 -0.417314 1.98314e-09 -6.74105e-10 -4.04374e-09 -2.90554 0.965183 -0.102902 1.98313e-09 -6.74107e-10 -4.04375e-09 -10.2786 0.731801 -0.0259123 1.98314e-09 -6.74104e-10 -4.04375e-09 -2.22167 -0.733487 0.20892 -2.03217e-16 0.0 -3.88251e-19 -26.0952 -32.6249 -15.7863 -0.585012 53.3644 1.71698 -2.95747 -17.7526 -9.29513 2.03217e-16 0.0 3.88251e-19 15.5833 -40.176 16.2152 0.598244 50.876 -1.20798 0.0826782 -8.9531 1.3675
